<svg xmlns="http://www.w3.org/2000/svg" version="1.1" xmlns:xlink="http://www.w3.org/1999/xlink" width="200" height="200"><svg xmlns="http://www.w3.org/2000/svg" version="1.1" xmlns:xlink="http://www.w3.org/1999/xlink" viewBox="0 0 200 200"><rect width="200" height="200" fill="url('#gradient')"></rect><defs><linearGradient id="SvgjsLinearGradient1001" gradientTransform="rotate(30 0.5 0.5)"><stop offset="0%" stop-color="#ffffff"></stop><stop offset="100%" stop-color="#ffffff"></stop></linearGradient></defs><g><g fill="#000000" transform="matrix(9.046122239342578,0,0,9.046122239342578,99.32330017922533,150.29795879115187)" stroke="#000000" stroke-width="0"><path d="M-1.02-12.37L-2.12-12.37Q-2.12-13.19-1.56-13.70Q-1.00-14.21-0.07-14.21Q0.86-14.21 1.43-13.70Q1.99-13.19 1.99-12.37L1.99-12.37L0.90-12.37Q0.90-12.82 0.65-13.09Q0.40-13.36-0.07-13.36L-0.07-13.36Q-0.52-13.36-0.77-13.10Q-1.02-12.84-1.02-12.37L-1.02-12.37ZM4.77-9.67L3.65-9.67Q3.65-10.49 4.22-11.00Q4.79-11.50 5.69-11.50L5.69-11.50Q6.62-11.50 7.19-11.00Q7.76-10.50 7.76-9.67L7.76-9.67L6.66-9.67Q6.66-10.15 6.40-10.40Q6.14-10.65 5.69-10.65L5.69-10.65Q5.25-10.65 5.01-10.40Q4.77-10.14 4.77-9.67L4.77-9.67ZM6.57-4.76L5.47-4.76Q5.47-5.59 6.04-6.09Q6.61-6.59 7.52-6.59L7.52-6.59Q8.45-6.59 9.01-6.08Q9.58-5.58 9.58-4.76L9.58-4.76L8.49-4.76Q8.49-5.23 8.23-5.49Q7.97-5.74 7.52-5.74Q7.07-5.74 6.82-5.47Q6.57-5.21 6.57-4.76L6.57-4.76ZM4.66 0.31L3.55 0.31Q3.55-0.51 4.12-1.02Q4.69-1.52 5.60-1.52L5.60-1.52Q6.52-1.52 7.09-1.02Q7.66-0.51 7.66 0.31L7.66 0.31L6.56 0.31Q6.56-0.17 6.30-0.42Q6.04-0.67 5.60-0.67L5.60-0.67Q5.16-0.67 4.91-0.41Q4.66-0.14 4.66 0.31L4.66 0.31ZM-0.97 3.09L-2.07 3.09Q-2.07 2.27-1.51 1.76Q-0.95 1.25-0.02 1.25Q0.91 1.25 1.47 1.76Q2.04 2.27 2.04 3.09L2.04 3.09L0.95 3.09Q0.95 2.64 0.70 2.37Q0.45 2.10-0.02 2.10L-0.02 2.10Q-0.47 2.10-0.72 2.37Q-0.97 2.64-0.97 3.09L-0.97 3.09ZM-6.60-9.67L-7.71-9.67Q-7.71-10.49-7.15-11.00Q-6.58-11.50-5.65-11.50Q-4.73-11.50-4.16-11.00Q-3.59-10.49-3.59-9.67L-3.59-9.67L-4.69-9.67Q-4.69-10.12-4.94-10.39Q-5.19-10.65-5.65-10.65L-5.65-10.65Q-6.10-10.65-6.35-10.40Q-6.60-10.14-6.60-9.67L-6.60-9.67ZM-8.33-4.76L-9.43-4.76Q-9.43-5.59-8.86-6.09Q-8.29-6.59-7.38-6.59L-7.38-6.59Q-6.46-6.59-5.89-6.08Q-5.32-5.58-5.32-4.76L-5.32-4.76L-6.42-4.76Q-6.42-5.23-6.67-5.49Q-6.93-5.74-7.38-5.74Q-7.83-5.74-8.08-5.47Q-8.33-5.21-8.33-4.76L-8.33-4.76ZM-6.70 0.31L-7.81 0.31Q-7.81-0.52-7.24-1.02Q-6.67-1.52-5.76-1.52L-5.76-1.52Q-4.83-1.52-4.26-1.02Q-3.69-0.52-3.69 0.31L-3.69 0.31L-4.79 0.31Q-4.79-0.17-5.05-0.42Q-5.31-0.67-5.76-0.67L-5.76-0.67Q-6.20-0.67-6.45-0.42Q-6.70-0.16-6.70 0.31L-6.70 0.31Z"></path></g></g></svg><style>@media (prefers-color-scheme: light) { :root { filter: none; } }
@media (prefers-color-scheme: dark) { :root { filter: none; } }
</style></svg>